# xmcd CD database file
#
# Track frame offsets:
#	150
#	22594
#	42779
#	67826
#	89420
#	102981
#	121593
#	136991
#	151438
#	173248
#	196308
#
# Disc length: 2878 seconds
#
# Revision: 1
# Processed by: cddbd v1.5.2PL0 Copyright (c) Steve Scherf et al.
# Submitted via: CDex 1.70beta3
#
DISCID=7f0b3c0b
DTITLE=Sofia Finnilﾃ､ - Everything I Love
DYEAR=1900
DGENRE=Jazz
TTITLE0=Cheek to Cheek
TTITLE1=So In Love
TTITLE2=Boy Next Door
TTITLE3=Everything I Love
TTITLE4=Day By Day
TTITLE5=The Midnight Sun Will Never Set
TTITLE6=A Time For Love
TTITLE7=My Shining Hour
TTITLE8=Just One of Those Things
TTITLE9=Time After Time
TTITLE10=You're Changed
EXTD=
EXTT0=
EXTT1=
EXTT2=
EXTT3=
EXTT4=
EXTT5=
EXTT6=
EXTT7=
EXTT8=
EXTT9=
EXTT10=
PLAYORDER=
